<svg width="1258" height="246" viewBox="0 0 1258 246" fill="none" xmlns="http://www.w3.org/2000/svg">
<path d="M37.0325 228.776H0V71.3748H37.0325V83.0386C40.8501 78.163 45.7724 74.2659 51.3933 71.6686C57.0141 69.0712 63.1719 67.8479 69.3586 68.1005C76.5877 68.0491 83.7445 69.5424 90.3503 72.4799C96.7063 75.3248 102.436 79.4 107.209 84.4709C112.066 89.6138 115.862 95.6637 118.381 102.274C121.108 109.251 122.496 116.679 122.473 124.169C122.504 131.594 121.115 138.957 118.381 145.86C115.823 152.361 112.076 158.33 107.332 163.458C102.625 168.501 96.9459 172.538 90.6371 175.327C84.0512 178.161 76.9364 179.556 69.7681 179.419C63.6721 179.572 57.6114 178.45 51.9742 176.124C46.337 173.798 41.2478 170.321 37.0325 165.914V228.776ZM83.6804 124.21C83.6963 121.02 83.1137 117.855 81.9621 114.879C80.8287 112.009 79.1154 109.404 76.9291 107.226C74.728 105.017 72.1325 103.24 69.2771 101.987C66.2655 100.696 63.0192 100.041 59.7425 100.064C56.5799 100.042 53.4463 100.668 50.5356 101.905C47.7262 103.077 45.1906 104.819 43.0885 107.021C40.9305 109.238 39.1969 111.832 37.9735 114.674C36.666 117.611 35.9967 120.791 36.0095 124.005C35.9871 127.169 36.6136 130.303 37.8506 133.214C39.0367 136.016 40.7765 138.55 42.9656 140.663C45.1976 142.821 47.8045 144.555 50.6585 145.778C53.5787 147.09 56.7463 147.76 59.9473 147.743C63.0548 147.765 66.1349 147.16 69.0034 145.965C71.8719 144.769 74.4699 143.007 76.6424 140.785C78.7546 138.562 80.4831 136.003 81.7573 133.214C83.0233 130.381 83.6784 127.313 83.6804 124.21ZM169.612 6.54828V176.391H132.784V6.54828H169.612ZM264.955 71.4158H302.191V176.391H264.955V164.727C261.166 169.584 256.278 173.471 250.694 176.068C245.109 178.665 238.987 179.898 232.833 179.665C225.6 179.786 218.421 178.392 211.759 175.572C205.433 172.827 199.726 168.832 194.982 163.826C190.169 158.658 186.391 152.614 183.852 146.024C181.107 138.91 179.719 131.345 179.76 123.719C179.794 116.393 181.181 109.137 183.852 102.315C186.323 95.7921 190.001 89.7936 194.695 84.6348C199.303 79.5929 204.867 75.5171 211.063 72.6438C217.759 69.6734 225.017 68.1796 232.342 68.2644C238.429 68.0939 244.481 69.2292 250.092 71.5941C255.704 73.959 260.743 77.4985 264.873 81.9745L264.955 71.4158ZM218.306 123.596C218.276 126.853 218.902 130.082 220.148 133.091C221.326 135.95 223.034 138.56 225.181 140.785C227.324 142.994 229.901 144.736 232.751 145.901C238.785 148.358 245.54 148.358 251.574 145.901C254.471 144.789 257.116 143.105 259.349 140.949C261.461 138.726 263.189 136.167 264.464 133.378C265.746 130.478 266.401 127.34 266.387 124.169C266.393 120.96 265.738 117.783 264.464 114.838C263.21 112.012 261.48 109.424 259.349 107.185C257.201 104.98 254.625 103.239 251.779 102.069C245.745 99.6125 238.99 99.6125 232.956 102.069C230.098 103.219 227.517 104.962 225.385 107.185C223.27 109.342 221.564 111.866 220.352 114.633C219.105 117.458 218.451 120.509 218.429 123.596H218.306ZM363.162 162.067L312.544 71.3748H355.51L383.54 125.193L410.751 71.3748H453.308L369.013 228.735H327.48L363.162 162.067ZM484.243 130.144C484.243 146.105 491.772 154.086 506.748 154.086C510.389 154.254 514.007 153.43 517.215 151.699C520.422 149.969 523.099 147.399 524.958 144.264H560.763C553.561 168.247 535.488 180.251 506.544 180.279C498.184 180.364 489.873 178.979 481.992 176.186C474.98 173.745 468.544 169.886 463.088 164.849C457.783 159.93 453.597 153.929 450.812 147.252C447.934 139.961 446.543 132.169 446.72 124.333C446.614 116.263 448.002 108.243 450.812 100.678C453.372 93.9492 457.349 87.8498 462.474 82.7933C467.723 77.7619 473.967 73.8861 480.806 71.4158C488.571 68.6165 496.776 67.2304 505.03 67.3232C513.191 67.2327 521.301 68.6192 528.968 71.4158C535.765 73.8703 541.92 77.8295 546.973 82.9976C552.03 88.2671 555.872 94.5816 558.226 101.496C560.989 109.386 562.373 117.692 562.318 126.052V129.94L484.243 130.144ZM527.618 108.658C526.544 103.832 523.877 99.5068 520.047 96.3805C516.01 93.39 511.118 91.7758 506.094 91.7758C501.07 91.7758 496.178 93.39 492.14 96.3805C488.384 99.6343 485.941 104.144 485.266 109.067L527.618 108.658ZM572.629 71.4158H609.457V88.6045C613.052 82.6787 618.038 77.7201 623.983 74.158C630.104 70.7395 637.025 69.0156 644.034 69.1646H647.226C648.6 69.1673 649.97 69.3048 651.318 69.5743V104.975C646.362 102.509 640.894 101.247 635.359 101.292C631.77 101.022 628.168 101.571 624.822 102.897C621.476 104.222 618.475 106.291 616.045 108.945C611.319 115.427 609.029 123.369 609.579 131.372V176.391H572.752L572.629 71.4158ZM795.969 145.492H840.161V176.391H733.77L783.284 102.315H740.522V71.3748H845.072L795.969 145.492ZM892.743 130.144C892.743 146.105 900.245 154.086 915.249 154.086C918.89 154.254 922.507 153.43 925.715 151.699C928.923 149.969 931.599 147.399 933.458 144.264H969.263C962.034 168.247 943.961 180.251 915.044 180.279C906.684 180.368 898.373 178.982 890.493 176.186C883.472 173.736 877.025 169.879 871.547 164.849C866.253 159.921 862.069 153.922 859.271 147.252C856.324 139.976 854.863 132.182 854.975 124.333C854.85 116.261 856.237 108.238 859.067 100.678C861.627 93.9492 865.604 87.8498 870.729 82.7933C875.956 77.7542 882.189 73.8768 889.02 71.4158C896.801 68.6202 905.018 67.2343 913.285 67.3232C921.446 67.2327 929.556 68.6192 937.223 71.4158C944.016 73.8805 950.168 77.8382 955.228 82.9976C960.286 88.2671 964.127 94.5816 966.481 101.496C969.228 109.39 970.611 117.694 970.573 126.052V129.94L892.743 130.144ZM936.118 108.658C935.03 103.838 932.366 99.5174 928.548 96.3805C924.501 93.3927 919.604 91.7808 914.574 91.7808C909.544 91.7808 904.646 93.3927 900.6 96.3805C896.859 99.6409 894.431 104.15 893.766 109.067L936.118 108.658ZM981.13 71.4158H1017.96V88.6045C1021.55 82.6787 1026.54 77.7201 1032.48 74.158C1038.6 70.734 1045.53 69.0096 1052.53 69.1646H1055.73C1057.1 69.1694 1058.47 69.3068 1059.82 69.5743V104.975C1054.86 102.509 1049.39 101.247 1043.86 101.292C1040.26 101.022 1036.66 101.571 1033.3 102.896C1029.95 104.222 1026.94 106.29 1024.5 108.945C1019.79 115.433 1017.52 123.374 1018.08 131.372V176.391H981.253L981.13 71.4158ZM1070.13 122.982C1070.07 115.453 1071.67 108.003 1074.84 101.169C1077.94 94.4636 1082.4 88.4722 1087.93 83.5707C1093.79 78.4576 1100.55 74.4752 1107.86 71.8249C1115.98 68.9654 1124.54 67.5794 1133.15 67.7323C1141.67 67.6256 1150.14 69.0107 1158.19 71.8249C1165.54 74.4299 1172.34 78.3856 1178.24 83.4887C1183.86 88.4135 1188.37 94.4837 1191.46 101.292C1194.66 108.473 1196.27 116.265 1196.16 124.128C1196.25 131.791 1194.68 139.382 1191.58 146.386C1188.47 153.391 1183.89 159.646 1178.16 164.727C1172.26 169.883 1165.41 173.819 1157.98 176.309C1149.79 179.08 1141.18 180.463 1132.53 180.402C1124.04 180.472 1115.6 179.087 1107.57 176.309C1100.27 173.776 1093.55 169.81 1087.81 164.645C1082.28 159.561 1077.86 153.388 1074.84 146.515C1071.4 139.143 1069.6 131.115 1069.56 122.982H1070.13ZM1109.21 123.392C1109.17 126.723 1109.83 130.025 1111.13 133.091C1112.38 135.929 1114.11 138.531 1116.25 140.785C1118.4 142.977 1120.98 144.716 1123.82 145.901C1126.77 147.13 1129.94 147.757 1133.15 147.743C1136.33 147.761 1139.49 147.135 1142.44 145.901C1145.28 144.736 1147.86 142.994 1150.01 140.785C1152.16 138.553 1153.9 135.945 1155.12 133.091C1156.42 130.122 1157.08 126.918 1157.08 123.678C1157.08 120.439 1156.42 117.234 1155.12 114.265C1153.9 111.423 1152.16 108.829 1150.01 106.612C1147.87 104.389 1145.29 102.646 1142.44 101.496C1139.49 100.262 1136.33 99.6361 1133.15 99.6548C1129.94 99.6407 1126.77 100.267 1123.82 101.496C1120.97 102.666 1118.39 104.407 1116.25 106.612C1114.13 108.828 1112.4 111.388 1111.13 114.183C1109.71 117.052 1108.91 120.191 1108.8 123.392H1109.21Z" fill="#FAFAFA"/>
<path d="M672.187 0.000244141H733.566V20.4632H693.096V225.093H733.648V245.556H672.268L672.187 0.000244141ZM1257.13 245.556H1195.75V225.093H1236.3V20.4632H1195.75V0.000244141H1257.13V245.556Z" fill="#008FFF"/>
</svg>
