<svg width="230" height="53" viewBox="0 0 307 53" fill="none" xmlns="http://www.w3.org/2000/svg">
<g clip-path="url(#clip0_0_105)">
<path d="M293.477 40.977C290.937 40.977 288.648 40.4046 286.609 39.2598C284.605 38.0793 283.013 36.4515 281.833 34.3766C280.652 32.2659 280.062 29.8154 280.062 27.025C280.062 24.2346 280.652 21.8019 281.833 19.727C283.049 17.6163 284.677 15.9886 286.716 14.8438C288.755 13.6633 291.027 13.073 293.531 13.073C296.071 13.073 298.343 13.6633 300.346 14.8438C302.385 15.9886 303.995 17.6163 305.176 19.727C306.392 21.8019 307 24.2346 307 27.025C307 29.8154 306.392 32.2659 305.176 34.3766C303.995 36.4515 302.385 38.0793 300.346 39.2598C298.307 40.4046 296.017 40.977 293.477 40.977ZM293.477 36.0938C294.837 36.0938 296.089 35.754 297.234 35.0742C298.414 34.3945 299.362 33.3928 300.078 32.0692C300.793 30.7098 301.151 29.0284 301.151 27.025C301.151 25.0216 300.793 23.3581 300.078 22.0345C299.398 20.6751 298.468 19.6555 297.287 18.9758C296.142 18.2961 294.89 17.9562 293.531 17.9562C292.172 17.9562 290.902 18.2961 289.721 18.9758C288.576 19.6555 287.646 20.6751 286.931 22.0345C286.215 23.3581 285.857 25.0216 285.857 27.025C285.857 29.0284 286.215 30.7098 286.931 32.0692C287.646 33.3928 288.576 34.3945 289.721 35.0742C290.866 35.754 292.118 36.0938 293.477 36.0938Z" fill="white"/>
<path d="M262.986 40.3331V13.7169H268.084L268.567 18.7611C269.497 17.0082 270.785 15.6309 272.431 14.6292C274.112 13.5917 276.133 13.073 278.494 13.073V19.0294H276.938C275.364 19.0294 273.951 19.2977 272.699 19.8344C271.483 20.3352 270.499 21.2117 269.748 22.4638C269.032 23.6801 268.674 25.3794 268.674 27.5616V40.3331H262.986Z" fill="white"/>
<path d="M245.708 40.977C243.096 40.977 240.771 40.4046 238.732 39.2598C236.729 38.0793 235.155 36.4515 234.01 34.3766C232.865 32.3017 232.293 29.887 232.293 27.1323C232.293 24.3419 232.847 21.8914 233.956 19.7807C235.101 17.67 236.675 16.0244 238.678 14.8438C240.717 13.6633 243.079 13.073 245.762 13.073C248.373 13.073 250.645 13.6633 252.577 14.8438C254.508 15.9886 256.011 17.5269 257.084 19.4587C258.157 21.3905 258.694 23.5191 258.694 25.8444C258.694 26.2022 258.676 26.5957 258.64 27.025C258.64 27.4185 258.623 27.8657 258.587 28.3665H237.873C238.052 30.9423 238.893 32.9099 240.396 34.2693C241.934 35.593 243.705 36.2548 245.708 36.2548C247.318 36.2548 248.659 35.8971 249.733 35.1816C250.842 34.4303 251.664 33.4286 252.201 32.1765H257.889C257.174 34.6807 255.743 36.7735 253.596 38.4549C251.486 40.1363 248.856 40.977 245.708 40.977ZM245.708 17.7416C243.812 17.7416 242.131 18.3139 240.664 19.4587C239.197 20.5677 238.303 22.2491 237.981 24.5029H253.006C252.899 22.428 252.165 20.7824 250.806 19.566C249.446 18.3497 247.747 17.7416 245.708 17.7416Z" fill="white"/>
<path d="M204.184 40.3331V35.9329L222.107 7.59956H204.399V2.77002H228.708V7.17027L210.731 35.5036H228.869V40.3331H204.184Z" fill="white"/>
<path d="M186.59 40.3331V13.7169H191.688L192.171 18.7611C193.101 17.0082 194.389 15.6309 196.034 14.6292C197.716 13.5917 199.737 13.073 202.098 13.073V19.0294H200.542C198.968 19.0294 197.555 19.2977 196.303 19.8344C195.086 20.3352 194.102 21.2117 193.351 22.4638C192.636 23.6801 192.278 25.3794 192.278 27.5616V40.3331H186.59Z" fill="white"/>
<path d="M169.312 40.977C166.7 40.977 164.375 40.4046 162.336 39.2598C160.332 38.0793 158.758 36.4515 157.613 34.3766C156.469 32.3017 155.896 29.887 155.896 27.1323C155.896 24.3419 156.451 21.8914 157.56 19.7807C158.704 17.67 160.279 16.0244 162.282 14.8438C164.321 13.6633 166.682 13.073 169.365 13.073C171.977 13.073 174.248 13.6633 176.18 14.8438C178.112 15.9886 179.615 17.5269 180.688 19.4587C181.761 21.3905 182.298 23.5191 182.298 25.8444C182.298 26.2022 182.28 26.5957 182.244 27.025C182.244 27.4185 182.226 27.8657 182.19 28.3665H161.477C161.656 30.9423 162.497 32.9099 163.999 34.2693C165.537 35.593 167.308 36.2548 169.312 36.2548C170.921 36.2548 172.263 35.8971 173.336 35.1816C174.445 34.4303 175.268 33.4286 175.805 32.1765H181.493C180.777 34.6807 179.346 36.7735 177.2 38.4549C175.089 40.1363 172.46 40.977 169.312 40.977ZM169.312 17.7416C167.416 17.7416 165.734 18.3139 164.267 19.4587C162.801 20.5677 161.906 22.2491 161.584 24.5029H176.61C176.502 22.428 175.769 20.7824 174.409 19.566C173.05 18.3497 171.351 17.7416 169.312 17.7416Z" fill="white"/>
<path d="M133.024 52.1385L139.41 38.1328H137.854L127.336 13.7168H133.507L141.664 33.4106L150.196 13.7168H156.206L139.034 52.1385H133.024Z" fill="white"/>
<path d="M111.4 40.977C109.146 40.977 107.286 40.6014 105.819 39.8501C104.353 39.0989 103.262 38.1151 102.546 36.8987C101.831 35.6466 101.473 34.2872 101.473 32.8205C101.473 30.2447 102.475 28.2056 104.478 26.703C106.481 25.2005 109.343 24.4492 113.064 24.4492H120.04V23.9663C120.04 21.8914 119.467 20.3352 118.323 19.2977C117.214 18.2603 115.765 17.7416 113.976 17.7416C112.402 17.7416 111.025 18.1351 109.844 18.9221C108.699 19.6734 108.002 20.8003 107.751 22.3028H102.063C102.242 20.371 102.886 18.7253 103.995 17.3659C105.14 15.9707 106.571 14.9154 108.288 14.1999C110.041 13.4486 111.955 13.073 114.03 13.073C117.75 13.073 120.63 14.0568 122.669 16.0244C124.708 17.9562 125.728 20.6035 125.728 23.9663V40.3331H120.791L120.308 35.7718C119.557 37.2386 118.466 38.4728 117.035 39.4745C115.604 40.4762 113.726 40.977 111.4 40.977ZM112.527 36.3621C114.065 36.3621 115.353 36.0044 116.391 35.2889C117.464 34.5376 118.287 33.5538 118.859 32.3375C119.467 31.1212 119.843 29.7796 119.986 28.3129H113.654C111.4 28.3129 109.79 28.7064 108.824 29.4934C107.894 30.2805 107.429 31.2643 107.429 32.4448C107.429 33.6611 107.876 34.6271 108.771 35.3425C109.701 36.0223 110.953 36.3621 112.527 36.3621Z" fill="white"/>
<path d="M91.1036 40.333V1.69666H96.7918V40.333H91.1036Z" fill="white"/>
<path d="M61.1189 40.3331V2.77002H74.266C77.1995 2.77002 79.6321 3.27086 81.564 4.27254C83.4958 5.23845 84.9267 6.57999 85.8569 8.29716C86.8228 9.97856 87.3057 11.8925 87.3057 14.0389C87.3057 16.0781 86.8407 17.9562 85.9105 19.6734C85.0162 21.3548 83.6031 22.6963 81.6713 23.698C79.7395 24.6997 77.271 25.2006 74.266 25.2006H66.807V40.3331H61.1189ZM66.807 20.532H73.9977C76.6807 20.532 78.5947 19.9596 79.7395 18.8148C80.92 17.6343 81.5103 16.0423 81.5103 14.0389C81.5103 11.964 80.92 10.3542 79.7395 9.20941C78.5947 8.02885 76.6807 7.43858 73.9977 7.43858H66.807V20.532Z" fill="white"/>
<path fill-rule="evenodd" clip-rule="evenodd" d="M13.3386 0.417969C5.9719 0.417969 0 6.38987 0 13.7566V30.5533C0 37.92 5.9719 43.8919 13.3386 43.8919H30.1354C37.5021 43.8919 43.474 37.92 43.474 30.5533V13.7566C43.474 6.38987 37.5021 0.417969 30.1354 0.417969H13.3386ZM34.9272 8.96484H8.54642V35.3456H34.9272V8.96484Z" fill="white"/>
</g>
<defs>
<clipPath id="clip0_0_105">
<rect width="307" height="53" fill="white"/>
</clipPath>
</defs>
</svg>
