<svg width="230" height="53" viewBox="0 0 307 53" fill="none" xmlns="http://www.w3.org/2000/svg">
<g clip-path="url(#clip0_0_130)">
<path d="M293.293 41.5304C290.718 41.5304 288.397 40.9502 286.33 39.7898C284.3 38.5931 282.686 36.9432 281.489 34.8399C280.293 32.7004 279.694 30.2165 279.694 27.388C279.694 24.5595 280.293 22.0937 281.489 19.9904C282.722 17.8509 284.372 16.201 286.439 15.0406C288.506 13.8439 290.809 13.2456 293.347 13.2456C295.922 13.2456 298.224 13.8439 300.255 15.0406C302.322 16.201 303.954 17.8509 305.151 19.9904C306.384 22.0937 307 24.5595 307 27.388C307 30.2165 306.384 32.7004 305.151 34.8399C303.954 36.9432 302.322 38.5931 300.255 39.7898C298.188 40.9502 295.867 41.5304 293.293 41.5304ZM293.293 36.5805C294.671 36.5805 295.94 36.236 297.1 35.5471C298.297 34.8581 299.258 33.8427 299.983 32.501C300.708 31.123 301.071 29.4187 301.071 27.388C301.071 25.3573 300.708 23.6711 299.983 22.3294C299.294 20.9514 298.351 19.9179 297.155 19.2289C295.994 18.5399 294.725 18.1954 293.347 18.1954C291.969 18.1954 290.682 18.5399 289.485 19.2289C288.325 19.9179 287.382 20.9514 286.657 22.3294C285.931 23.6711 285.569 25.3573 285.569 27.388C285.569 29.4187 285.931 31.123 286.657 32.501C287.382 33.8427 288.325 34.8581 289.485 35.5471C290.646 36.236 291.915 36.5805 293.293 36.5805Z" fill="currentColor"/>
<path d="M262.386 40.8777V13.8983H267.553L268.043 19.0113C268.985 17.2345 270.291 15.8384 271.959 14.823C273.663 13.7714 275.712 13.2456 278.105 13.2456V19.2833H276.528C274.932 19.2833 273.5 19.5553 272.231 20.0992C270.998 20.6069 270.001 21.4953 269.239 22.7645C268.514 23.9974 268.151 25.7199 268.151 27.9319V40.8777H262.386Z" fill="currentColor"/>
<path d="M244.872 41.5304C242.224 41.5304 239.867 40.9502 237.8 39.7898C235.77 38.5931 234.174 36.9432 233.014 34.8399C231.853 32.7367 231.273 30.289 231.273 27.4968C231.273 24.6683 231.835 22.1843 232.959 20.0448C234.12 17.9053 235.715 16.2373 237.746 15.0406C239.813 13.8439 242.206 13.2456 244.926 13.2456C247.573 13.2456 249.876 13.8439 251.834 15.0406C253.792 16.201 255.315 17.7603 256.403 19.7185C257.491 21.6766 258.035 23.8343 258.035 26.1913C258.035 26.554 258.017 26.9528 257.981 27.388C257.981 27.7869 257.962 28.2402 257.926 28.7478H236.93C237.111 31.3587 237.964 33.3532 239.487 34.7312C241.046 36.0729 242.841 36.7437 244.872 36.7437C246.503 36.7437 247.863 36.3811 248.951 35.6558C250.075 34.8943 250.909 33.879 251.453 32.6098H257.219C256.494 35.1482 255.043 37.2695 252.868 38.9739C250.728 40.6782 248.063 41.5304 244.872 41.5304ZM244.872 17.9779C242.95 17.9779 241.245 18.5581 239.759 19.7185C238.272 20.8426 237.365 22.5469 237.039 24.8315H252.269C252.16 22.7283 251.417 21.0602 250.039 19.8273C248.661 18.5943 246.939 17.9779 244.872 17.9779Z" fill="currentColor"/>
<path d="M202.781 40.8777V36.4174L220.949 7.69744H202.999V2.802H227.639V7.26229L209.417 35.9822H227.803V40.8777H202.781Z" fill="currentColor"/>
<path d="M184.947 40.8777V13.8983H190.114L190.604 19.0113C191.546 17.2345 192.852 15.8384 194.52 14.823C196.224 13.7714 198.273 13.2456 200.666 13.2456V19.2833H199.089C197.493 19.2833 196.061 19.5553 194.792 20.0992C193.559 20.6069 192.562 21.4953 191.8 22.7645C191.075 23.9974 190.712 25.7199 190.712 27.9319V40.8777H184.947Z" fill="currentColor"/>
<path d="M167.433 41.5304C164.786 41.5304 162.428 40.9502 160.361 39.7898C158.331 38.5931 156.735 36.9432 155.575 34.8399C154.414 32.7367 153.834 30.289 153.834 27.4968C153.834 24.6683 154.396 22.1843 155.52 20.0448C156.681 17.9053 158.276 16.2373 160.307 15.0406C162.374 13.8439 164.767 13.2456 167.487 13.2456C170.134 13.2456 172.437 13.8439 174.395 15.0406C176.353 16.201 177.876 17.7603 178.964 19.7185C180.052 21.6766 180.596 23.8343 180.596 26.1913C180.596 26.554 180.578 26.9528 180.542 27.388C180.542 27.7869 180.523 28.2402 180.487 28.7478H159.491C159.672 31.3587 160.525 33.3532 162.048 34.7312C163.607 36.0729 165.402 36.7437 167.433 36.7437C169.064 36.7437 170.424 36.3811 171.512 35.6558C172.636 34.8943 173.47 33.879 174.014 32.6098H179.78C179.055 35.1482 177.604 37.2695 175.429 38.9739C173.289 40.6782 170.624 41.5304 167.433 41.5304ZM167.433 17.9779C165.511 17.9779 163.806 18.5581 162.32 19.7185C160.833 20.8426 159.926 22.5469 159.6 24.8315H174.83C174.721 22.7283 173.978 21.0602 172.6 19.8273C171.222 18.5943 169.5 17.9779 167.433 17.9779Z" fill="currentColor"/>
<path d="M130.65 52.8443L137.123 38.6475H135.546L124.884 13.8983H131.14L139.408 33.8608L148.056 13.8983H154.148L136.742 52.8443H130.65Z" fill="currentColor"/>
<path d="M108.731 41.5304C106.447 41.5304 104.561 41.1496 103.074 40.3881C101.587 39.6266 100.481 38.6294 99.7562 37.3964C99.031 36.1273 98.6683 34.7493 98.6683 33.2625C98.6683 30.6516 99.6837 28.5847 101.714 27.0616C103.745 25.5386 106.646 24.7771 110.417 24.7771H117.489V24.2875C117.489 22.1843 116.908 20.6069 115.748 19.5553C114.624 18.5037 113.155 17.9779 111.342 17.9779C109.747 17.9779 108.35 18.3768 107.154 19.1745C105.993 19.936 105.286 21.0783 105.032 22.6013H99.2667C99.448 20.6432 100.101 18.9751 101.225 17.5971C102.385 16.1829 103.836 15.1131 105.576 14.3879C107.353 13.6264 109.293 13.2456 111.396 13.2456C115.168 13.2456 118.087 14.2428 120.154 16.2373C122.221 18.1954 123.254 20.8789 123.254 24.2875V40.8777H118.25L117.761 36.2542C116.999 37.7409 115.893 38.992 114.443 40.0073C112.992 41.0227 111.088 41.5304 108.731 41.5304ZM109.873 36.8525C111.433 36.8525 112.738 36.4899 113.79 35.7646C114.878 35.0031 115.712 34.0059 116.292 32.773C116.908 31.54 117.289 30.1802 117.434 28.6934H111.016C108.731 28.6934 107.099 29.0923 106.12 29.8901C105.177 30.6879 104.706 31.6851 104.706 32.8818C104.706 34.1147 105.159 35.0938 106.066 35.819C107.009 36.508 108.278 36.8525 109.873 36.8525Z" fill="currentColor"/>
<path d="M88.1576 40.8776V1.71411H93.9233V40.8776H88.1576Z" fill="currentColor"/>
<path d="M57.7638 40.8777V2.802H71.0903C74.0638 2.802 76.5297 3.30968 78.4878 4.32503C80.446 5.30412 81.8965 6.66396 82.8393 8.40456C83.8184 10.1089 84.308 12.0489 84.308 14.2247C84.308 16.2917 83.8366 18.1954 82.8937 19.936C81.9872 21.6404 80.5548 23.0002 78.5966 24.0156C76.6384 25.0309 74.1363 25.5386 71.0903 25.5386H63.5295V40.8777H57.7638ZM63.5295 20.8063H70.8183C73.538 20.8063 75.478 20.2261 76.6384 19.0657C77.8351 17.8691 78.4334 16.2554 78.4334 14.2247C78.4334 12.1215 77.8351 10.4897 76.6384 9.32926C75.478 8.13259 73.538 7.53426 70.8183 7.53426H63.5295V20.8063Z" fill="currentColor"/>
<g clip-path="url(#clip1_0_130)">
<path fill-rule="evenodd" clip-rule="evenodd" d="M44.0672 0.417969H0V44.4852H44.0672V0.417969ZM34.3524 10.0828H9.61466V34.8205H34.3524V10.0828Z" fill="black"/>
</g>
</g>
<defs>
<clipPath id="clip0_0_130">
<rect width="307" height="53" fill="white"/>
</clipPath>
<clipPath id="clip1_0_130">
<rect y="0.417969" width="44.0672" height="44.0672" rx="13.5206" fill="white"/>
</clipPath>
</defs>
</svg>
