<svg width="1258" height="247" viewBox="0 0 1258 247" fill="none" xmlns="http://www.w3.org/2000/svg">
<path d="M37.0325 229.26H0V71.8592H37.0325V83.523C40.8501 78.6475 45.7724 74.7504 51.3933 72.153C57.0141 69.5556 63.1719 68.3324 69.3586 68.585C76.5877 68.5336 83.7445 70.0268 90.3503 72.9643C96.7063 75.8092 102.436 79.8844 107.209 84.9553C112.066 90.0983 115.862 96.1481 118.381 102.759C121.108 109.735 122.496 117.163 122.473 124.654C122.504 132.079 121.115 139.441 118.381 146.344C115.823 152.846 112.076 158.814 107.332 163.943C102.625 168.985 96.9459 173.022 90.6371 175.811C84.0512 178.645 76.9364 180.041 69.7681 179.904C63.6721 180.057 57.6114 178.934 51.9742 176.609C46.337 174.283 41.2478 170.805 37.0325 166.398V229.26ZM83.6804 124.695C83.6963 121.504 83.1137 118.339 81.9621 115.364C80.8287 112.493 79.1154 109.888 76.9291 107.71C74.728 105.502 72.1325 103.725 69.2771 102.472C66.2655 101.18 63.0192 100.526 59.7425 100.548C56.5799 100.526 53.4463 101.153 50.5356 102.39C47.7262 103.562 45.1906 105.304 43.0885 107.506C40.9305 109.723 39.1969 112.317 37.9735 115.159C36.666 118.095 35.9967 121.276 36.0095 124.49C35.9871 127.653 36.6136 130.787 37.8506 133.698C39.0367 136.5 40.7765 139.034 42.9656 141.147C45.1976 143.306 47.8045 145.04 50.6585 146.263C53.5787 147.574 56.7463 148.244 59.9473 148.227C63.0548 148.249 66.1349 147.645 69.0034 146.449C71.8719 145.254 74.4699 143.492 76.6424 141.269C78.7546 139.046 80.4831 136.488 81.7573 133.698C83.0233 130.865 83.6784 127.798 83.6804 124.695ZM169.612 7.03271V176.875H132.784V7.03271H169.612ZM264.955 71.9002H302.191V176.875H264.955V165.212C261.166 170.068 256.278 173.955 250.694 176.553C245.109 179.15 238.987 180.382 232.833 180.149C225.6 180.27 218.421 178.876 211.759 176.056C205.433 173.311 199.726 169.316 194.982 164.311C190.169 159.142 186.391 153.099 183.852 146.508C181.107 139.394 179.719 131.829 179.76 124.204C179.794 116.878 181.181 109.621 183.852 102.799C186.323 96.2765 190.001 90.278 194.695 85.1192C199.303 80.0773 204.867 76.0016 211.063 73.1282C217.759 70.1579 225.017 68.664 232.342 68.7488C238.429 68.5783 244.481 69.7137 250.092 72.0786C255.704 74.4435 260.743 77.9829 264.873 82.4589L264.955 71.9002ZM218.306 124.081C218.276 127.337 218.902 130.566 220.148 133.575C221.326 136.434 223.034 139.045 225.181 141.269C227.324 143.479 229.901 145.221 232.751 146.385C238.785 148.842 245.54 148.842 251.574 146.385C254.471 145.273 257.116 143.589 259.349 141.433C261.461 139.21 263.189 136.652 264.464 133.862C265.746 130.962 266.401 127.824 266.387 124.654C266.393 121.444 265.738 118.268 264.464 115.323C263.21 112.497 261.48 109.908 259.349 107.669C257.201 105.464 254.625 103.723 251.779 102.554C245.745 100.097 238.99 100.097 232.956 102.554C230.098 103.703 227.517 105.447 225.385 107.669C223.27 109.827 221.564 112.35 220.352 115.118C219.105 117.942 218.451 120.993 218.429 124.081H218.306ZM363.162 162.551L312.544 71.8592H355.51L383.54 125.677L410.751 71.8592H453.308L369.013 229.219H327.48L363.162 162.551ZM484.243 130.629C484.243 146.59 491.772 154.57 506.748 154.57C510.389 154.739 514.007 153.914 517.215 152.184C520.422 150.454 523.099 147.884 524.958 144.749H560.763C553.561 168.731 535.488 180.736 506.544 180.763C498.184 180.849 489.873 179.463 481.992 176.67C474.98 174.229 468.544 170.37 463.088 165.334C457.783 160.414 453.597 154.413 450.812 147.736C447.934 140.446 446.543 132.653 446.72 124.817C446.614 116.747 448.002 108.728 450.812 101.162C453.372 94.4336 457.349 88.3342 462.474 83.2777C467.723 78.2464 473.967 74.3705 480.806 71.9002C488.571 69.1009 496.776 67.7148 505.03 67.8076C513.191 67.7172 521.301 69.1037 528.968 71.9002C535.765 74.3548 541.92 78.3139 546.973 83.4821C552.03 88.7516 555.872 95.066 558.226 101.981C560.989 109.87 562.373 118.177 562.318 126.536V130.424L484.243 130.629ZM527.618 109.143C526.544 104.316 523.877 99.9913 520.047 96.8649C516.01 93.8744 511.118 92.2603 506.094 92.2603C501.07 92.2603 496.178 93.8744 492.14 96.8649C488.384 100.119 485.941 104.628 485.266 109.552L527.618 109.143ZM572.629 71.9002H609.457V89.0889C613.052 83.1631 618.038 78.2045 623.983 74.6424C630.104 71.224 637.025 69.5 644.034 69.6491H647.226C648.6 69.6518 649.97 69.7892 651.318 70.0587V105.459C646.362 102.993 640.894 101.732 635.359 101.776C631.77 101.507 628.168 102.055 624.822 103.381C621.476 104.707 618.475 106.775 616.045 109.429C611.319 115.912 609.029 123.853 609.579 131.857V176.875H572.752L572.629 71.9002ZM795.969 145.976H840.161V176.875H733.77L783.284 102.799H740.522V71.8592H845.072L795.969 145.976ZM892.743 130.629C892.743 146.59 900.245 154.57 915.249 154.57C918.89 154.739 922.507 153.914 925.715 152.184C928.923 150.454 931.599 147.884 933.458 144.749H969.263C962.034 168.731 943.961 180.736 915.044 180.763C906.684 180.852 898.373 179.467 890.493 176.67C883.472 174.221 877.025 170.363 871.547 165.334C866.253 160.405 862.069 154.407 859.271 147.736C856.324 140.46 854.863 132.667 854.975 124.817C854.85 116.746 856.237 108.723 859.067 101.162C861.627 94.4336 865.604 88.3342 870.729 83.2777C875.956 78.2386 882.189 74.3613 889.02 71.9002C896.801 69.1046 905.018 67.7187 913.285 67.8076C921.446 67.7172 929.556 69.1037 937.223 71.9002C944.016 74.3649 950.168 78.3227 955.228 83.4821C960.286 88.7516 964.127 95.066 966.481 101.981C969.228 109.874 970.611 118.178 970.573 126.536V130.424L892.743 130.629ZM936.118 109.143C935.03 104.322 932.366 100.002 928.548 96.8649C924.501 93.8772 919.604 92.2653 914.574 92.2653C909.544 92.2653 904.646 93.8772 900.6 96.8649C896.859 100.125 894.431 104.634 893.766 109.552L936.118 109.143ZM981.13 71.9002H1017.96V89.0889C1021.55 83.1631 1026.54 78.2045 1032.48 74.6424C1038.6 71.2184 1045.53 69.494 1052.53 69.6491H1055.73C1057.1 69.6538 1058.47 69.7913 1059.82 70.0587V105.459C1054.86 102.993 1049.39 101.732 1043.86 101.776C1040.26 101.507 1036.66 102.055 1033.3 103.381C1029.95 104.706 1026.94 106.774 1024.5 109.429C1019.79 115.917 1017.52 123.858 1018.08 131.857V176.875H981.253L981.13 71.9002ZM1070.13 123.467C1070.07 115.937 1071.67 108.488 1074.84 101.653C1077.94 94.9481 1082.4 88.9566 1087.93 84.0551C1093.79 78.9421 1100.55 74.9596 1107.86 72.3094C1115.98 69.4498 1124.54 68.0638 1133.15 68.2168C1141.67 68.11 1150.14 69.4951 1158.19 72.3094C1165.54 74.9143 1172.34 78.87 1178.24 83.9732C1183.86 88.8979 1188.37 94.9681 1191.46 101.776C1194.66 108.958 1196.27 116.75 1196.16 124.613C1196.25 132.275 1194.68 139.866 1191.58 146.871C1188.47 153.876 1183.89 160.131 1178.16 165.212C1172.26 170.367 1165.41 174.304 1157.98 176.793C1149.79 179.565 1141.18 180.948 1132.53 180.886C1124.04 180.956 1115.6 179.572 1107.57 176.793C1100.27 174.26 1093.55 170.295 1087.81 165.13C1082.28 160.045 1077.86 153.872 1074.84 146.999C1071.4 139.627 1069.6 131.6 1069.56 123.467H1070.13ZM1109.21 123.876C1109.17 127.207 1109.83 130.51 1111.13 133.575C1112.38 136.413 1114.11 139.016 1116.25 141.269C1118.4 143.461 1120.98 145.201 1123.82 146.385C1126.77 147.615 1129.94 148.241 1133.15 148.227C1136.33 148.246 1139.49 147.619 1142.44 146.385C1145.28 145.221 1147.86 143.479 1150.01 141.269C1152.16 139.037 1153.9 136.43 1155.12 133.575C1156.42 130.606 1157.08 127.402 1157.08 124.163C1157.08 120.923 1156.42 117.719 1155.12 114.75C1153.9 111.907 1152.16 109.314 1150.01 107.096C1147.87 104.874 1145.29 103.13 1142.44 101.981C1139.49 100.747 1136.33 100.121 1133.15 100.139C1129.94 100.125 1126.77 100.751 1123.82 101.981C1120.97 103.15 1118.39 104.891 1116.25 107.096C1114.13 109.312 1112.4 111.872 1111.13 114.668C1109.71 117.536 1108.91 120.675 1108.8 123.876H1109.21Z" fill="#18181B"/>
<path d="M672.187 0.484619H733.566V20.9476H693.096V225.577H733.648V246.04H672.268L672.187 0.484619ZM1257.13 246.04H1195.75V225.577H1236.3V20.9476H1195.75V0.484619H1257.13V246.04Z" fill="#008FFF"/>
</svg>
