<svg width="114" height="114" viewBox="0 0 114 114" fill="none" xmlns="http://www.w3.org/2000/svg">
<g clip-path="url(#clip0_5_54)">
<rect width="114" height="114" fill="white"/>
<rect width="114" height="114" fill="#D9D9D9"/>
<path d="M32.5484 61.0694C38 61.0694 42.4194 65.4948 42.4194 70.9538V83.7211C42.4194 86.3748 44.5677 88.526 47.2177 88.526H67.7823C70.4323 88.526 72.5806 86.3748 72.5806 83.7211V70.9538C72.5806 65.4948 77 61.0694 82.4516 61.0694H100V78.6416C100 84.1006 95.5806 88.526 90.129 88.526H77.379C74.729 88.526 72.5806 90.6773 72.5806 93.3309V100.058C72.5806 102.787 70.3709 105 67.6452 105H47.3548C44.629 105 42.4194 102.787 42.4194 100.058V93.3309C42.4194 90.6773 40.271 88.526 37.621 88.526H24.871C19.4194 88.526 15 84.1006 15 78.6416V61.0694H32.5484Z" fill="#171717"/>
<path d="M67.6452 10C70.3709 10 72.5806 12.2127 72.5806 14.9422V21.6691C72.5806 24.3228 74.729 26.474 77.379 26.474H90.129C95.5806 26.474 100 30.8994 100 36.3584V53.9306H82.4516C77 53.9306 72.5806 49.5052 72.5806 44.0462V31.2789C72.5806 28.6252 70.4323 26.474 67.7823 26.474H47.2177C44.5677 26.474 42.4194 28.6252 42.4194 31.2789V44.0462C42.4194 49.5052 38 53.9306 32.5484 53.9306H15V36.3584C15 30.8994 19.4194 26.474 24.871 26.474H37.621C40.271 26.474 42.4194 24.3228 42.4194 21.6691V14.9422C42.4194 12.2127 44.629 10 47.3548 10H67.6452Z" fill="#171717"/>
</g>
<defs>
<clipPath id="clip0_5_54">
<rect width="114" height="114" fill="white"/>
</clipPath>
</defs>
</svg>
